<svg width="15" height="21" viewBox="0 0 15 21" fill="none" xmlns="http://www.w3.org/2000/svg">
<path d="M11.7161 20.9999C11.4163 21.0006 11.12 20.9512 10.8491 20.8552C10.5782 20.7591 10.3395 20.619 10.1506 20.4449L0.456579 11.4458C0.161379 11.1774 0 10.8408 0 10.4934C0 10.146 0.161379 9.80935 0.456579 9.54097L10.4918 0.541827C10.8325 0.235531 11.322 0.0429128 11.8528 0.00634665C12.3835 -0.0302195 12.9119 0.0922618 13.3218 0.346845C13.7316 0.601429 13.9894 0.967262 14.0383 1.36386C14.0872 1.76047 13.9233 2.15535 13.5827 2.46164L4.61117 10.5009L13.2816 18.5401C13.527 18.7603 13.6829 19.0284 13.7309 19.3127C13.7788 19.597 13.7167 19.8856 13.5521 20.1443C13.3874 20.4031 13.1269 20.6212 12.8016 20.7728C12.4762 20.9244 12.0995 21.0032 11.7161 20.9999Z" fill="white"/>
</svg>
